<svg xmlns="http://www.w3.org/2000/svg" viewBox="0 0 64 64" width="100%" height="100%">
  <defs>
    <linearGradient id="fav-grad" x1="0%" y1="0%" x2="100%" y2="100%">
      <stop offset="0%" stop-color="#06b6d4" />
      <stop offset="50%" stop-color="#6366f1" />
      <stop offset="100%" stop-color="#a855f7" />
    </linearGradient>
    <linearGradient id="fav-accent" x1="0%" y1="0%" x2="100%" y2="0%">
      <stop offset="0%" stop-color="#38bdf8" />
      <stop offset="100%" stop-color="#818cf8" />
    </linearGradient>
  </defs>

  <!-- Outer Shield -->
  <polygon points="32,2 60,16 60,48 32,62 4,48 4,16" fill="url(#fav-grad)" />
  <polygon points="32,7 55,18 55,46 32,57 9,46 9,18" fill="#0f172a" />

  <!-- D-Pad Left -->
  <path d="M 20,32 L 27,25 L 27,39 Z" fill="url(#fav-accent)" />
  <!-- Buttons Right -->
  <circle cx="43" cy="27" r="3.5" fill="#06b6d4" />
  <circle cx="48" cy="32" r="3.5" fill="#a855f7" />
  <circle cx="38" cy="32" r="3.5" fill="#10b981" />
  <circle cx="43" cy="37" r="3.5" fill="#f59e0b" />

  <!-- Center Gem -->
  <polygon points="32,23 39,32 32,41 25,32" fill="url(#fav-grad)" />
</svg>
