<svg width="64" height="64" viewBox="0 0 64 64" fill="none" xmlns="http://www.w3.org/2000/svg">
  <rect width="64" height="64" rx="16" fill="url(#bg)"/>
  <path d="M18 24C18 20.6863 20.6863 18 24 18H40C43.3137 18 46 20.6863 46 24V40C46 43.3137 43.3137 46 40 46H24C20.6863 46 18 43.3137 18 40V24Z" fill="white" fill-opacity="0.18"/>
  <path d="M24 22H40C41.1046 22 42 22.8954 42 24V40C42 41.1046 41.1046 42 40 42H24C22.8954 42 22 41.1046 22 40V24C22 22.8954 22.8954 22 24 22Z" stroke="white" stroke-width="2.5"/>
  <path d="M22 32H42" stroke="white" stroke-width="2.5"/>
  <path d="M32 22V42" stroke="white" stroke-width="2.5"/>
  <circle cx="27" cy="27" r="2.5" fill="white"/>
  <circle cx="37" cy="37" r="2.5" fill="white"/>
  <defs>
    <linearGradient id="bg" x1="8" y1="6" x2="56" y2="58" gradientUnits="userSpaceOnUse">
      <stop stop-color="#2ECC71"/>
      <stop offset="1" stop-color="#0F766E"/>
    </linearGradient>
  </defs>
</svg>
